<svg width="1920" height="1226" viewBox="0 0 1920 1226" fill="none" xmlns="http://www.w3.org/2000/svg">
<g clip-path="url(#clip0_6_75)">
<rect width="1920" height="1226" fill="#EEEEEE"/>
<path d="M784.378 1107.82C359.578 1001.82 47.045 1151.99 -56.1216 1240.32C-81.2883 1262.49 -153.122 1314.12 -239.122 1343.32C-346.622 1379.82 -321.622 1377.82 -351.122 1412.32C-380.622 1446.82 -371.622 1519.82 -239.122 1556.32C-106.622 1592.82 -21.6216 1569.82 104.378 1567.82C230.378 1565.82 1628.88 1631.82 1743.38 1647.82C1834.98 1660.62 1940.21 1482.15 1981.38 1391.32L1928.88 1144.32C1860.88 1113.82 1696.48 1054.12 1582.88 1059.32C1440.88 1065.82 1315.38 1240.32 784.378 1107.82Z" fill="#E3E3E3"/>
</g>
<defs>
<clipPath id="clip0_6_75">
<rect width="1920" height="1226" fill="white"/>
</clipPath>
</defs>
</svg>
