<svg width="148" height="120" viewBox="0 0 148 120" fill="none" xmlns="http://www.w3.org/2000/svg">
<path d="M46.5381 120C102.394 120 132.939 73.8372 132.939 33.8079C132.939 32.4964 132.905 31.1899 132.854 29.8919C138.784 25.6158 143.934 20.2799 148 14.2073C142.562 16.6174 136.7 18.2435 130.567 18.9753C136.836 15.2266 141.647 9.29073 143.917 2.21748C138.039 5.68903 131.55 8.21238 124.638 9.57125C119.081 3.6828 111.203 0 102.462 0C85.6896 0 72.1025 13.5667 72.1025 30.2907C72.1025 32.6687 72.3568 34.9808 72.8819 37.1983C47.6392 35.9324 25.2765 23.8783 10.3003 5.54874C7.69136 10.0226 6.18361 15.2265 6.18361 20.7736C6.18361 31.2845 11.5371 40.5618 19.7028 45.9905C14.722 45.8367 10.0292 44.4709 5.94637 42.1994C5.92942 42.3261 5.92949 42.4529 5.92949 42.5864C5.92949 57.2585 16.3992 69.5071 30.2912 72.2857C27.75 72.977 25.0563 73.3505 22.2948 73.3505C20.3296 73.3505 18.4321 73.1577 16.5855 72.8045C20.4482 84.84 31.6634 93.5983 44.9455 93.8451C34.5604 101.97 21.4648 106.812 7.23401 106.812C4.79445 106.812 2.3718 106.673 0 106.393C13.4345 114.984 29.3934 120 46.5381 120Z" fill="#CCCCCC"/>
</svg>
