<svg width="136" height="113" viewBox="0 0 136 113" fill="none" xmlns="http://www.w3.org/2000/svg">
<path d="M135.732 2.44141C135.245 0.995529 134.663 0.615036 133.755 0.253563C131.768 -0.488403 128.402 0.634056 128.402 0.634056C128.402 0.634056 9.24096 43.7822 2.4334 48.5574C0.967615 49.5848 0.476522 50.1936 0.232855 50.8975C-0.943925 54.2839 2.7224 55.7869 2.7224 55.7869L33.4358 65.87C33.4358 65.87 34.5805 66.0412 34.9885 65.7749C41.9755 61.3231 105.285 21.0667 108.937 19.7159C109.513 19.5447 109.94 19.7349 109.826 20.1344C108.364 25.3092 53.3768 74.5263 53.3768 74.5263C53.3768 74.5263 53.1672 74.7926 53.0349 75.097L52.9631 75.0589L50.0977 105.746C50.0977 105.746 48.8964 115.144 58.2294 105.746C64.8141 99.1062 71.1853 93.551 74.3738 90.8685C84.9345 98.2121 96.3 106.336 101.205 110.578C103.669 112.709 105.729 113.051 107.426 112.994C112.082 112.823 113.381 107.667 113.381 107.667C113.381 107.667 135.096 19.6398 135.821 7.84445C135.893 6.68394 135.991 5.96098 135.999 5.16194C136.012 4.0585 135.91 2.95508 135.732 2.44141Z" fill="#CCCCCC"/>
</svg>
